<svg id="Layer_1" data-name="Layer 1" xmlns="http://www.w3.org/2000/svg" viewBox="0 0 122.88 107.04"><defs><style>.cls-1{fill-rule:evenodd;}</style></defs><title>business-profit</title><path class="cls-1" d="M68.23,63.5l.7,1c.81,1.19,1.7,2.51,2.59,3.7a22,22,0,0,0,7.41,3.62,36.34,36.34,0,0,0-3.1,14.72,34,34,0,0,0,6.28,19.71H6.35c-4-.3-6-2.36-6.35-5.93,1.53-6,1.75-12.48,5.48-17.43A16.89,16.89,0,0,1,11,78.26C17.2,74.79,30.16,73.63,37,69c1.08-1.39,2.18-3,3.18-4.48.61-.88,1.17-1.71,1.65-2.36-3-2.63-5.39-5.2-5.89-10.67h-.31a4.15,4.15,0,0,1-2-.54,5.59,5.59,0,0,1-2.24-2.72,12.41,12.41,0,0,1-.9-4.09c0-.43,0-1.27,0-2.08h0c0-.7.06-1.37.11-1.75a1.15,1.15,0,0,1,.09-.33A3.48,3.48,0,0,1,33,37.45c-.35-6.64.74-17.07-6-19.12C40.36,1.72,55.85-7.32,67.49,7.46c13.37.7,19.1,21,9.9,31a4.19,4.19,0,0,1,2.07.44,3.26,3.26,0,0,1,1.6,1.94A5.81,5.81,0,0,1,81,44.16l-1.75,5a3.55,3.55,0,0,1-1.11,1.82,3.23,3.23,0,0,1-2.37.58l-.48-.06c-.11,5.53-2.82,8.08-6.36,11.4l-.68.64Zm-24.61.18c-.46.63-.95,1.36-1.49,2.15-1.11,1.63-2.36,3.45-3.58,5,1.58,9.88,5.37,16.83,8.81,24.24L52,79c-5.8-9.62,11.76-10.18,6.47,0h0l4.61,16c3.57-7.51,7.29-15,8.13-23.49-1.41-1.66-2.91-3.86-4.21-5.76l-.49-.72a15.9,15.9,0,0,1-10.4,4.16c-4,0-8.1-1.73-11.87-5.08l-.59-.52ZM65.7,19.89c-6.81,6.91-15.31,4.77-21.31,7.5-.35.21-.71.44-1.08.7a9.79,9.79,0,0,0-3.85,4.8,12.1,12.1,0,0,0-.16,6.59,1.3,1.3,0,0,1,0,.78,1.33,1.33,0,0,1-1.71.8l-.39-.14,0,.2-.68-.45-.13-.05c-1.58-.55-2.7-.81-3.13.18,0,.32-.06.81-.07,1.32h0c0,.73,0,1.49,0,1.87a9.86,9.86,0,0,0,.69,3.18,3,3,0,0,0,1.11,1.45,1.5,1.5,0,0,0,.75.2,4.13,4.13,0,0,0,1.09-.18,1.09,1.09,0,0,1,.4-.07,1.32,1.32,0,0,1,1.36,1.29c.15,6,2.83,8.35,6.09,11.15.49.43,1,.87,1.35,1.19,3.28,2.91,6.72,4.41,10.1,4.41s6.56-1.44,9.63-4.39l1.38-1.31c3.41-3.21,5.93-5.58,5.45-11.34a1.28,1.28,0,0,1,.21-.84,1.33,1.33,0,0,1,1.85-.38,3.74,3.74,0,0,0,.71.37,2.1,2.1,0,0,0,.58.13,2.24,2.24,0,0,0,.58,0,4,4,0,0,0,.25-.62l1.69-4.81a3.23,3.23,0,0,0,.11-1.78.68.68,0,0,0-.31-.4,1.5,1.5,0,0,0-.83-.11,4.64,4.64,0,0,0-2.39,1,1.37,1.37,0,0,1-1,.25,1.34,1.34,0,0,1-1.09-1.54c1.26-7.33.68-12.11-.88-15.37a13.11,13.11,0,0,0-5.92-5.87l-.37.28ZM51.63,34.19c1.34.5,1.62,1.63.87,2s-2-.24-2.85-.51c-2.25-.72-4.92-.8-6.85.41a10.65,10.65,0,0,0-1.58,1.25,5.62,5.62,0,0,1,1-1.93c1.95-2.45,6.85-2.6,9.46-1.26Zm8.47,0c-1.35.5-1.63,1.63-.88,2s2-.24,2.85-.51c2.25-.72,4.92-.8,6.86.41a11.79,11.79,0,0,1,1.58,1.25,5.47,5.47,0,0,0-1-1.93c-2-2.45-6.85-2.6-9.45-1.26ZM44.63,39a.54.54,0,0,1-.7-.39.66.66,0,0,1,.35-.8,9.3,9.3,0,0,1,6.69,0,.66.66,0,0,1,.36.79.53.53,0,0,1-.69.4,11.48,11.48,0,0,0-1.1-.33,1.93,1.93,0,0,1,.05.42,1.55,1.55,0,0,1-3.1,0,1.64,1.64,0,0,1,.12-.6,8.62,8.62,0,0,0-2,.51Zm18-.46a1.63,1.63,0,0,0-.1.55,1.55,1.55,0,1,0,3.1,0,1.59,1.59,0,0,0-.16-.69,10.93,10.93,0,0,1,2,.45.54.54,0,0,0,.68-.43.66.66,0,0,0-.38-.78,10.62,10.62,0,0,0-3.35-.54,10.26,10.26,0,0,0-3.31.55.64.64,0,0,0-.37.78.54.54,0,0,0,.68.42,10.52,10.52,0,0,1,1.16-.31ZM54.13,51.93a.72.72,0,0,1-.09-1,.74.74,0,0,1,1-.09,1.43,1.43,0,0,0,2.11,0,.72.72,0,1,1,.91,1.11,3.08,3.08,0,0,1-2,.79,2.94,2.94,0,0,1-1.94-.79Zm-2.26,6.24a.75.75,0,0,1,.71-1.33,7.36,7.36,0,0,0,3.43.94,7,7,0,0,0,3.39-.93.75.75,0,0,1,1,.29.76.76,0,0,1-.29,1A8.28,8.28,0,0,1,56,59.28a9,9,0,0,1-4.15-1.11Zm70.2,28.17a5.37,5.37,0,0,1,.81,2.78c0,5.12-7.94,8.5-17.72,8.5s-17.72-3.38-17.72-8.5a5.33,5.33,0,0,1,.81-2.78c2.25,3.77,9,6.51,16.91,6.51s14.66-2.74,16.91-6.51Zm-10.51-19.2-.21,2.31-8.69-.76a8,8,0,0,1,1.48,3.13l-2.09-.19a6.76,6.76,0,0,0-.94-2A4.23,4.23,0,0,0,99.3,68l.17-1.87,12.09,1Zm-6.4-3.61c8,0,14.56,2.56,14.56,5.71S113.2,75,105.16,75,90.6,72.39,90.6,69.24s6.52-5.71,14.56-5.71Zm0-1.9c9.78,0,17.72,4.17,17.72,9.29s-7.94,9.29-17.72,9.29-17.72-4.16-17.72-9.29,7.94-9.29,17.72-9.29Zm17,15.49a5.35,5.35,0,0,1,.75,2.66c0,5.13-7.94,9.3-17.72,9.3s-17.72-4.17-17.72-9.3a5.13,5.13,0,0,1,.75-2.66c2.18,3.82,9,6.62,17,6.62s14.79-2.8,17-6.62Zm-.08,18.59c.54.89.83,1.05.83,2,0,5.12-7.94,9.29-17.72,9.29s-17.72-4.17-17.72-9.29c0-1,.29-1.15.83-2,2.28,3.75,9,5.69,16.89,5.69s14.6-1.94,16.89-5.69Z"/></svg>