<svg id="Layer_1" data-name="Layer 1" xmlns="http://www.w3.org/2000/svg" viewBox="0 0 113.58 122.88"><defs><style>.cls-1{fill:#121212;}</style></defs><title>customer-journey</title><path class="cls-1" d="M47.63,57.54c-1-1.5-2.71-3.53-2.71-5.29a2.83,2.83,0,0,1,1.9-2.57c-.09-1.48-.15-3-.15-4.48,0-.88,0-1.77,0-2.64a6,6,0,0,1,.3-1.33,9.43,9.43,0,0,1,4.21-5.35,11.94,11.94,0,0,1,2.28-1.09c1.44-.52.74-2.8,2.33-2.83,3.7-.1,9.79,3.14,12.16,5.7a8.65,8.65,0,0,1,2.42,5.79l-.15,6.48a2.12,2.12,0,0,1,1.56,1.33c.51,2.05-1.62,4.6-2.6,6.22s-4.39,5.6-4.4,5.64a1.37,1.37,0,0,0,.32.75c5.4,7.43,21.27,2.74,21.27,17.51H30.32C30.32,66.6,46.2,71.3,51.6,63.87A1.7,1.7,0,0,0,52,63.1c0-.09-4-5-4.35-5.56ZM32.15,101.8a4.58,4.58,0,0,1,1.18-.62l12.5-4.5A4.75,4.75,0,0,1,49,105.63l-2,.72c1.11.24,2.22.43,3.33.58a49.26,49.26,0,0,0,10.21.33,47.61,47.61,0,0,0,41.6-31.68,49.14,49.14,0,0,0,2.55-21.95A48.14,48.14,0,0,0,97.36,33a4.27,4.27,0,0,1,7.19-4.62,57.05,57.05,0,0,1,5.68,50.09,56.14,56.14,0,0,1-49.05,37.36,57.77,57.77,0,0,1-11.94-.39c-2-.27-3.94-.65-5.9-1.12l.85,1.94A4.76,4.76,0,1,1,35.46,120l-5.34-12.17a4.77,4.77,0,0,1,2-6Zm65-86.31A5,5,0,0,1,97.42,17a4.75,4.75,0,0,1-3.32,5.31L81.4,26.15a4.76,4.76,0,1,1-2.77-9.1l1.21-.37a47.52,47.52,0,0,0-9.6-3.95A48.26,48.26,0,0,0,19.81,90.11a4.27,4.27,0,1,1-6.55,5.48,56.81,56.81,0,0,1,71.38-86L83.45,6.47a4.77,4.77,0,1,1,8.92-3.4l4.74,12.42Z"/></svg>