<?xml version="1.0" encoding="utf-8"?><svg version="1.1" id="Layer_1" xmlns="http://www.w3.org/2000/svg" xmlns:xlink="http://www.w3.org/1999/xlink" x="0px" y="0px" viewBox="0 0 91.33 122.88" style="enable-background:new 0 0 91.33 122.88" xml:space="preserve"><style type="text/css">.st0{fill-rule:evenodd;clip-rule:evenodd;}</style><g><path class="st0" d="M39.1,30.89c4.53,0,8.21,3.68,8.21,8.21c0,4.54-3.68,8.21-8.21,8.21c-4.54,0-8.21-3.68-8.21-8.21 C30.89,34.56,34.56,30.89,39.1,30.89L39.1,30.89z M39.1,0c2.95,0,5.64,1.21,7.58,3.15c1.94,1.94,3.15,4.63,3.15,7.58v2.47 l1.75-1.75l0,0c2.09-2.09,4.84-3.13,7.58-3.13c2.75,0,5.5,1.04,7.58,3.13l0,0l0,0c2.09,2.09,3.13,4.84,3.13,7.58 s-1.04,5.5-3.13,7.58l0,0L65,28.37h2.47c2.95,0,5.64,1.21,7.58,3.15c1.94,1.94,3.15,4.63,3.15,7.58c0,2.95-1.21,5.64-3.15,7.58 c-1.94,1.94-4.63,3.15-7.58,3.15H65l1.75,1.75l0,0c2.09,2.09,3.13,4.84,3.13,7.58c0,2.75-1.04,5.5-3.13,7.58l0,0l0,0 c-2.09,2.09-4.84,3.13-7.58,3.13c-1.89,0-3.78-0.5-5.46-1.49c0.94,5.58,0.48,11.29-0.52,16.81c2.45-3.65,5.42-6.52,8.81-8.67 c7.34-4.64,16.53-5.79,26.72-4.03c1.71,0.29,2.87,1.92,2.57,3.63c-0.01,0.05-0.02,0.09-0.03,0.13l0,0 c-2.01,9.2-6.67,16.37-13.93,20.96c-6.84,4.32-15.89,6.26-27.09,5.34c-0.41-0.03-0.79-0.14-1.13-0.31 c-0.46,1.93-0.83,3.73-1.04,5.37c-0.28,2.15-0.3,4.29-0.06,6.44c0.24,2.16,0.74,1.92,1.5,4.03c0.64,1.78-0.14,3.81-1.74,4.53 c-1.61,0.72-3.43-0.15-4.07-1.94c-0.98-2.72-1.62-3.06-1.92-5.78c-0.08-0.75-0.14-1.5-0.17-2.25c-11.37-1.75-20.04-5.8-26.04-11.69 c-6.62-6.51-9.92-15.15-9.97-25.35c0-0.09,0-0.18,0-0.27c0.07-1.73,1.53-3.08,3.26-3.02c11.27,0.48,20.81,3.81,27.54,10.44 c3.45,3.4,6.14,7.62,7.92,12.72l0.09-0.34c1.76-6.76,3.74-14.39,3.5-21.56c-0.36,0.52-0.77,1.01-1.22,1.45 c-1.94,1.94-4.63,3.15-7.58,3.15c-2.95,0-5.64-1.21-7.58-3.15c-1.94-1.94-3.15-4.63-3.15-7.58V65l-1.75,1.75l0,0 c-2.09,2.09-4.84,3.13-7.58,3.13s-5.5-1.04-7.58-3.13l0,0c-2.09-2.09-3.13-4.84-3.13-7.58s1.04-5.5,3.13-7.59l1.75-1.75h-2.47 c-2.95,0-5.64-1.21-7.58-3.15C1.21,44.73,0,42.05,0,39.1c0-2.95,1.21-5.64,3.15-7.58c1.94-1.94,4.63-3.15,7.58-3.15h2.47 l-1.75-1.75c-2.09-2.09-3.13-4.84-3.13-7.59s1.04-5.5,3.13-7.58l0,0c2.09-2.09,4.84-3.13,7.58-3.13c2.75,0,5.5,1.04,7.58,3.13l0,0 l1.75,1.75v-2.47c0-2.95,1.21-5.64,3.15-7.58C33.46,1.21,36.15,0,39.1,0L39.1,0z M12.02,78.87c0.64,7.05,3.28,13.03,7.95,17.62 c4.66,4.58,11.4,7.87,20.25,9.56c-0.88-8.21-3.78-14.41-8.24-18.79C27.09,82.45,20.22,79.73,12.02,78.87L12.02,78.87z M73.98,91.91 c4.89-3.09,8.31-7.74,10.24-13.67c-7.28-0.74-13.73,0.37-18.87,3.62c-4.67,2.95-8.35,7.75-10.71,14.63 C62.61,96.62,69.07,95.01,73.98,91.91L73.98,91.91z M42.69,7.14c-0.92-0.92-2.19-1.5-3.59-1.5c-1.4,0-2.67,0.57-3.59,1.5 c-0.92,0.92-1.5,2.19-1.5,3.59v9.28h0c0,0.72-0.28,1.44-0.83,1.99c-1.1,1.1-2.89,1.1-3.99,0l-6.56-6.56l0,0 c-0.99-0.99-2.29-1.48-3.6-1.48s-2.61,0.49-3.6,1.48l0,0c-0.99,0.99-1.48,2.29-1.48,3.6c0,1.31,0.49,2.61,1.48,3.6l6.55,6.55 c0.52,0.51,0.84,1.22,0.84,2.01c0,1.56-1.26,2.82-2.82,2.82h-9.28c-1.4,0-2.67,0.57-3.59,1.5c-0.92,0.92-1.5,2.19-1.5,3.59 c0,1.4,0.57,2.67,1.5,3.59c0.92,0.92,2.19,1.5,3.59,1.5h9.28v0c0.72,0,1.44,0.28,1.99,0.83c1.1,1.1,1.1,2.89,0,3.99l-6.56,6.56 c-0.99,0.99-1.48,2.29-1.48,3.6s0.49,2.61,1.48,3.6l0,0c0.99,0.99,2.29,1.48,3.6,1.48c1.31,0,2.61-0.49,3.6-1.48l0,0l6.54-6.54 c0.51-0.52,1.23-0.85,2.02-0.85c1.56,0,2.82,1.26,2.82,2.82v9.28c0,1.4,0.57,2.67,1.5,3.59c0.92,0.92,2.19,1.5,3.59,1.5 c1.4,0,2.67-0.57,3.59-1.5c0.92-0.92,1.5-2.19,1.5-3.59v-9.28h0c0-0.72,0.28-1.44,0.83-1.99c1.1-1.1,2.89-1.1,3.99,0l6.56,6.56l0,0 c0.99,0.99,2.29,1.48,3.6,1.48c1.31,0,2.61-0.49,3.6-1.48l0,0l0,0c0.99-0.99,1.48-2.29,1.48-3.6s-0.49-2.61-1.48-3.6l0,0 l-6.55-6.55c-0.52-0.51-0.84-1.22-0.84-2.01c0-1.56,1.26-2.82,2.82-2.82h9.28c1.4,0,2.67-0.57,3.59-1.5 c0.92-0.92,1.5-2.19,1.5-3.59c0-1.4-0.57-2.67-1.5-3.59c-0.92-0.92-2.19-1.5-3.59-1.5h-9.28v0c-0.72,0-1.44-0.28-1.99-0.83 c-1.1-1.1-1.1-2.89,0-3.99l6.56-6.56l0,0c0.99-0.99,1.48-2.29,1.48-3.6c0-1.31-0.49-2.61-1.48-3.6l0,0l0,0 c-0.99-0.99-2.29-1.48-3.6-1.48c-1.31,0-2.61,0.49-3.6,1.48l0,0l-6.55,6.55c-0.51,0.52-1.22,0.84-2.01,0.84 c-1.56,0-2.82-1.26-2.82-2.82v-9.28C44.18,9.33,43.61,8.06,42.69,7.14L42.69,7.14z"/></g></svg>